<svg width="39" height="39" viewBox="0 0 39 39" fill="none" xmlns="http://www.w3.org/2000/svg">
<circle cx="19.1145" cy="19.019" r="19"/>
<path fill-rule="evenodd" clip-rule="evenodd" d="M16.843 21.8735V15.6915L22.7863 18.7935L16.843 21.8735ZM29.8945 14.6212C29.8945 14.6212 29.68 13.1043 29.02 12.4366C28.184 11.561 27.2457 11.5566 26.8156 11.5049C23.7378 11.2827 19.1189 11.2827 19.1189 11.2827H19.1101C19.1101 11.2827 14.4923 11.2827 11.4134 11.5049C10.9833 11.5566 10.0461 11.5599 9.20896 12.4366C8.54896 13.1043 8.33446 14.6212 8.33446 14.6212C8.33446 14.6212 8.11446 16.401 8.11446 18.1819V19.8506C8.11446 21.6304 8.33446 23.4113 8.33446 23.4113C8.33446 23.4113 8.54896 24.9271 9.20896 25.5948C10.045 26.4715 11.145 26.4429 11.6345 26.5353C13.3945 26.7036 19.1145 26.7553 19.1145 26.7553C19.1145 26.7553 23.7378 26.7487 26.8156 26.5265C27.2457 26.4748 28.184 26.4715 29.02 25.5948C29.68 24.9271 29.8945 23.4113 29.8945 23.4113C29.8945 23.4113 30.1145 21.6304 30.1145 19.8506V18.1819C30.1145 16.401 29.8945 14.6212 29.8945 14.6212Z" fill="#F7F7F7"/>
</svg>
