<svg width="39" height="39" viewBox="0 0 39 39" fill="none" xmlns="http://www.w3.org/2000/svg">
  <circle cx="19.1145" cy="19.019" r="19"/>
  <path d="M27.8531 14.5381C27.8671 14.7335 27.8671 14.929 27.8671 15.1244C27.8671 21.0851 23.3303 27.9531 15.0383 27.9531C12.4838 27.9531 10.1107 27.2133 8.11446 25.9291C8.47741 25.9709 8.82637 25.9849 9.20329 25.9849C11.3111 25.9849 13.2515 25.273 14.801 24.0585C12.8188 24.0166 11.1576 22.7184 10.5853 20.9316C10.8645 20.9734 11.1436 21.0013 11.4368 21.0013C11.8416 21.0013 12.2465 20.9455 12.6234 20.8478C10.5574 20.429 9.00782 18.6143 9.00782 16.4227V16.3668C9.60806 16.7019 10.3061 16.9113 11.0459 16.9391C9.83141 16.1295 9.03575 14.7475 9.03575 13.184C9.03575 12.3465 9.25906 11.5787 9.64995 10.9087C11.8695 13.6447 15.2058 15.4315 18.9469 15.627C18.8771 15.2919 18.8352 14.943 18.8352 14.594C18.8352 12.1092 20.8454 10.0851 23.3441 10.0851C24.6424 10.0851 25.8149 10.6295 26.6386 11.5089C27.6576 11.3135 28.6347 10.9366 29.5003 10.4201C29.1652 11.4671 28.4533 12.3465 27.518 12.9049C28.4254 12.8072 29.3048 12.5559 30.1145 12.2069C29.5003 13.1003 28.7325 13.896 27.8531 14.5381Z" fill="#F7F7F7"/>
</svg>