<svg xmlns="http://www.w3.org/2000/svg" viewBox="0 0 22 17.87"><title>icon-twitter</title><g id="Capa_2" data-name="Capa 2"><g id="set_icons"><path id="icon-twitter" d="M19.74,4.45c0,.2,0,.39,0,.59A12.74,12.74,0,0,1,6.92,17.87a12.71,12.71,0,0,1-6.92-2,7.79,7.79,0,0,0,1.09.06A9,9,0,0,0,6.69,14a4.51,4.51,0,0,1-4.22-3.12,6,6,0,0,0,.85.07,4.68,4.68,0,0,0,1.19-.16A4.51,4.51,0,0,1,.89,6.34V6.28a4.39,4.39,0,0,0,2,.57,4.51,4.51,0,0,1-2-3.75A4.4,4.4,0,0,1,1.54.82a12.77,12.77,0,0,0,9.29,4.72,5,5,0,0,1-.11-1,4.51,4.51,0,0,1,7.8-3.09A9,9,0,0,0,21.39.34a4.53,4.53,0,0,1-2,2.48,9.09,9.09,0,0,0,2.6-.7A9.44,9.44,0,0,1,19.74,4.45Z" style="fill:#f8f7f7"/></g></g></svg>