<svg xmlns="http://www.w3.org/2000/svg" viewBox="0 0 24 16"><title>icon-eye</title><g id="Capa_2" data-name="Capa 2"><g id="set_icons"><path id="icon-eye" d="M12,3.33a4.77,4.77,0,0,0-1.3.21A2.33,2.33,0,0,1,11,4.67a2.28,2.28,0,0,1-.18.89A2.25,2.25,0,0,1,9.56,6.82,2.28,2.28,0,0,1,8.67,7a2.33,2.33,0,0,1-1.13-.3,4.66,4.66,0,0,0,.09,2.86A4.65,4.65,0,1,0,12,3.33ZM23.85,7.39A13.34,13.34,0,0,0,12,0,13.39,13.39,0,0,0,.14,7.39a1.4,1.4,0,0,0,0,1.22A13.37,13.37,0,0,0,12,16,13.34,13.34,0,0,0,23.85,8.61a1.32,1.32,0,0,0,0-1.22ZM12,14A11.32,11.32,0,0,1,2.09,8,11.32,11.32,0,0,1,12,2a11.32,11.32,0,0,1,9.91,6A11.32,11.32,0,0,1,12,14Z" style="fill:#f8f7f7"/></g></g></svg>