<svg xmlns="http://www.w3.org/2000/svg" viewBox="0 0 22 15.47"><title>icon-youtube</title><g id="Capa_2" data-name="Capa 2"><g id="set_icons"><path id="icon-youtube" d="M8.73,10.59V4.41l5.94,3.1ZM21.78,3.34a4.75,4.75,0,0,0-.87-2.19A3.18,3.18,0,0,0,18.7.22C15.62,0,11,0,11,0h0S6.38,0,3.3.22a3.18,3.18,0,0,0-2.21.93A4.75,4.75,0,0,0,.22,3.34,33.26,33.26,0,0,0,0,6.9V8.57a33.26,33.26,0,0,0,.22,3.56,4.73,4.73,0,0,0,.87,2.18,3.71,3.71,0,0,0,2.43.94c1.76.17,7.48.22,7.48.22s4.62,0,7.7-.23a3.14,3.14,0,0,0,2.21-.93,4.73,4.73,0,0,0,.87-2.18A33.26,33.26,0,0,0,22,8.57V6.9A33.26,33.26,0,0,0,21.78,3.34Z" style="fill:#f8f7f7;fill-rule:evenodd"/></g></g></svg>