<svg xmlns="http://www.w3.org/2000/svg" viewBox="0 0 329.1 365.36"><g id="Capa_2" data-name="Capa 2"><g id="logo"><g id="texto"><path d="M25.7,307.66c1.9,2.8,3.8,5.8,5.9,8.7s4.1,5.9,6.1,8.7,3.8,5.2,5.3,7.1l17.9-31.9H86.6c-.3,11.1-.4,22-.4,32.7s.1,21.1.4,31.1L60.1,364c.1-2.6.2-5.5.2-8.9s.1-6.9.1-10.5,0-7.3-.1-11-.2-7-.3-10.1l-20.7,36H30.5c-1.1-2-2.5-4.3-4-6.9s-3.2-5.3-4.9-8.1-3.4-5.4-5.1-7.9-3.2-4.7-4.5-6.5v34.2H0c.1-2.8.2-5.9.3-9.4s.1-7.2.2-11.1.1-7.8.1-11.9v-11.8c0-3.8-.1-7.4-.2-10.8s-.2-6.4-.3-8.9h21A81.15,81.15,0,0,0,25.7,307.66Z"/><path d="M150.8,323c.1-2.8.1-5.6.1-8.4s0-5.6-.1-8.1-.1-4.5-.2-6.1h11.9c-.1,2.5-.1,5.4-.2,8.7s-.1,6.8-.1,10.6v23.6c0,3.9.1,7.7.1,11.3s.1,6.8.2,9.7H150.6l-6.1-6.1-7.2-7.2c-2.5-2.5-5.1-5-7.8-7.6s-5.2-5.1-7.8-7.5-4.9-4.6-7-6.7-4.1-3.8-5.7-5.2c-.2,2.3-.3,5.3-.3,8.7s-.1,7.1,0,10.9.1,7.5.1,11.2.1,6.8.2,9.4H97.5c.1-2.7.1-5.7.2-9s.1-6.9.2-10.7.1-7.6.1-11.5v-11.7c0-3.9-.1-7.6-.1-11.1s-.1-6.8-.2-9.8h21.1l32,30C150.7,328.26,150.7,325.76,150.8,323Z"/><path d="M239,311.26c-3.3.2-6.2.4-8.6.5l-7.8.3c-2.8.1-5.2.1-7.3.1-.2,2.2-.3,4.7-.4,7.5s-.1,5.8-.2,8.9v9.6c0,3.3.1,6.5.1,9.6s.1,6.1.2,8.9.1,5.3.2,7.5l-24.5.1c.1-2.2.1-4.8.1-7.7s.1-5.9.1-9.1v-19.3c0-3.1-.1-6-.1-8.7s-.1-5.2-.2-7.2c-3,.2-5.9.2-8.6.2s-5-.1-7-.3-4.2-.4-6.5-.7v-11h70.4v10.8Z"/><path d="M328.8,336.86a20.45,20.45,0,0,1-2.4,5.5,23.73,23.73,0,0,1-4.1,4.9c-1.6,1.5-3.3,2.9-4.9,4.2a61.75,61.75,0,0,1-15,8.3,85.7,85.7,0,0,1-30.3,5.6c-4.7,0-8.8-.2-12.3-.5a116.31,116.31,0,0,1-11.6-1.7c.2-3.9.4-8.6.5-13.9s.2-10.8.2-16.5,0-11.4-.1-17.1-.3-10.8-.5-15.3h19.9q6.6,0,13.2.6a87.65,87.65,0,0,1,12.8,2.1,72.78,72.78,0,0,1,11.7,3.8,43.57,43.57,0,0,1,10.1,5.8,39.4,39.4,0,0,1,7.8,8,32.38,32.38,0,0,1,5,10.4A14.16,14.16,0,0,1,328.8,336.86Zm-29.6-11.5a19.17,19.17,0,0,0-5-6.5,25.58,25.58,0,0,0-6.4-3.9,33,33,0,0,0-6.4-1.9,43.75,43.75,0,0,0-4.9-.7c-1.2-.1-1.8-.1-2-.1v41.9a38,38,0,0,0,11.6-2.9,31.63,31.63,0,0,0,9.8-6.5,19.18,19.18,0,0,0,2.7-4.4,29.11,29.11,0,0,0,1.6-5,18.16,18.16,0,0,0,.2-5.2A13.06,13.06,0,0,0,299.2,325.36Z"/></g><g id="isotipo"><path id="isotipo-2" data-name="isotipo" d="M281.5,281.66c-5.7-2.6-10.3-7.7-14.7-12.2s-8.7-9.2-12.8-14a319.17,319.17,0,0,1-22.9-31.1c-14.6-22.4-27.5-45.9-40.8-69.1-6.8-11.8-13.5-23.6-20.3-35.4a47.77,47.77,0,0,0,7.1-6.4,16.1,16.1,0,0,0,8.7,2.5,16.7,16.7,0,0,0,0-33.4,17,17,0,0,0-9.9,3.3H155.5a123.77,123.77,0,0,1,51.1-62.7,133.19,133.19,0,0,1,31.3-14c3.9-1.2,2.2-7.3-1.7-6.1a134.31,134.31,0,0,0-54.6,31.4,130,130,0,0,0-32.1,49.4c-.2.7-.5,1.4-.7,2.1H135.4a129.64,129.64,0,0,0-54.6-70.9A141.19,141.19,0,0,0,48.2.16c-3.9-1.2-5.5,4.9-1.7,6.1,37,11.5,67.8,39.2,81.2,76.4.4,1.1.8,2.2,1.1,3.3H114.1a16,16,0,0,0-10.4-3.8,16.7,16.7,0,0,0,0,33.4,16.29,16.29,0,0,0,5.9-1.1,45.75,45.75,0,0,0,33.2,14.4c.7,0,1.4-.1,2.1-.1a740.38,740.38,0,0,0,33.8,70.8,175.16,175.16,0,0,0-50-28.2,172.71,172.71,0,0,0-17.3-5.3c-2.7-.7-5.3-1.2-8-1.8-3-.6-6.2-1.4-9.2-1.2a19,19,0,0,0-13.4,6.6c-3.7,4.3-4.9,9.5-4.6,15.1a169.51,169.51,0,0,0,8.9,46.3c1.5,4.6,8.7,2.6,7.2-2a164.55,164.55,0,0,1-8.1-37.3c-.5-5-1.7-10.9,1-15.5a11.44,11.44,0,0,1,9.7-5.7c5-.1,10.5,1.7,15.4,2.9a149.1,149.1,0,0,1,15.7,4.8,169.45,169.45,0,0,1,29.5,14,162.28,162.28,0,0,1,29.8,23c3,2.9,7.4-.7,6.2-4a3,3,0,0,0-.3-2.4A714.23,714.23,0,0,1,151.3,128a43.53,43.53,0,0,0,13.2-4.8c13,22.8,26,45.6,39.2,68.4,13,22.6,26.5,45,43,65.2q6.9,8.4,14.4,16.2c5,5.1,10.4,11.1,17,14.1C281.9,288.76,285.1,283.36,281.5,281.66Z"/></g></g></g></svg>