<svg xmlns="http://www.w3.org/2000/svg" viewBox="0 0 483.01 105.1"><title>logotipo_banner</title><g id="Capa_2" data-name="Capa 2"><g id="logotipo_banner"><path d="M95.52,28.9c1.7,2.6,3.5,5.2,5.3,7.9s3.7,5.3,5.5,7.8,3.4,4.7,4.8,6.4l16.2-28.7h23.2c-.2,10-.4,19.8-.4,29.5s.1,19,.4,28.1l-24-.1c.1-2.3.2-5,.2-8s.1-6.2.1-9.5,0-6.6-.1-9.9-.1-6.3-.3-9.1l-18.8,32.2h-7.9c-1-1.8-2.2-3.8-3.6-6.2s-2.9-4.8-4.5-7.3-3.1-4.9-4.6-7.2-2.9-4.3-4.1-5.9V79.7H72.22c.1-2.5.2-5.3.3-8.5s.1-6.5.2-10,.1-7,.1-10.7V39.9c0-3.4-.1-6.7-.1-9.7s-.2-5.7-.3-8h19C92.42,24.1,93.82,26.3,95.52,28.9Z"/><path d="M209.82,79.9l-8.6-13.7a14.68,14.68,0,0,0-6-1.5,11.69,11.69,0,0,0-4.5.8,14.49,14.49,0,0,0-3.2,2,11.16,11.16,0,0,0-1.9,2.1l-.6.9-9.1-10.1-9.5,19.5h-12.2c2.2-3.8,4.6-8.2,7.2-13s5.2-9.8,7.8-15,5.2-10.3,7.7-15.4,4.8-9.8,6.9-14.2h17.3c1.2,2.4,2.7,5.2,4.5,8.3s3.6,6.4,5.5,9.9,4,7,6.2,10.6,4.2,7.2,6.3,10.6,4.1,6.8,6,9.9,3.6,5.8,5.1,8.2h-24.9Zm-22.9-42.4-9.2,18.2a28.78,28.78,0,0,1,8.4-2.1,23.24,23.24,0,0,1,8.7.8Z"/><path d="M289.42,42.6c0-2.5.1-5,.1-7.6s0-5-.1-7.3-.1-4.1-.1-5.5H300c0,2.3-.1,4.9-.1,7.8s-.1,6.2-.1,9.6V60.9c0,3.5,0,6.9.1,10.1s.1,6.2.2,8.7h-10.7l-5.5-5.5-6.5-6.5c-2.3-2.3-4.7-4.5-7.1-6.9s-4.7-4.6-7-6.7-4.4-4.2-6.4-6-3.7-3.4-5.1-4.7c-.1,2.1-.2,4.7-.3,7.9s-.1,6.4,0,9.9.1,6.8.1,10.1.1,6.1.1,8.5h-10.4c0-2.4.1-5.1.2-8.1s.1-6.2.1-9.6,0-6.8.1-10.4V41.2c0-3.5-.1-6.8-.1-10s-.1-6.2-.2-8.9h19.1l28.9,27C289.32,47.4,289.42,45.1,289.42,42.6Z"/><path d="M369.22,32.1c-3,.2-5.6.3-7.8.4l-7,.3c-2.5.1-4.7.1-6.6.1-.1,2-.3,4.2-.3,6.8s-.1,5.2-.1,8.1v8.7c0,3,0,5.8.1,8.7s.1,5.5.1,8,.1,4.8.2,6.7l-22.2.1c0-2,.1-4.3.1-6.9s0-5.3.1-8.2V47.5c0-2.8-.1-5.4-.1-7.9s-.1-4.6-.1-6.5c-2.7.1-5.3.2-7.7.1a57.84,57.84,0,0,1-6.3-.3c-1.8-.1-3.8-.3-5.9-.6V22.4h63.7v9.7Z"/><path d="M375.42,79.9c.2-8.8.4-18,.4-27.4s-.1-19.5-.3-30.2h24.7c-.1,2.4-.2,5.2-.2,8.3s-.1,6.4-.1,9.9-.1,7-.1,10.6V61.7c0,3.5.1,6.7.1,9.9s.2,5.9.3,8.3Z"/><path d="M482.72,55.1a16.45,16.45,0,0,1-2.2,4.9,22.16,22.16,0,0,1-3.7,4.4c-1.5,1.4-2.9,2.6-4.4,3.8a56.91,56.91,0,0,1-13.6,7.5,67.11,67.11,0,0,1-14.1,3.8,78.22,78.22,0,0,1-13.3,1.2c-4.2,0-7.9-.1-11.1-.4s-6.7-.8-10.5-1.5c.2-3.6.3-7.7.4-12.5s.2-9.7.2-14.9,0-10.3-.1-15.4-.2-9.7-.4-13.8h18a117.06,117.06,0,0,1,11.9.6,83.61,83.61,0,0,1,11.5,1.9,69.14,69.14,0,0,1,10.6,3.4,38.51,38.51,0,0,1,9.1,5.2,37.23,37.23,0,0,1,7.1,7.2,29.24,29.24,0,0,1,4.5,9.4A10.21,10.21,0,0,1,482.72,55.1ZM456,44.7a17.68,17.68,0,0,0-4.5-5.8,23.6,23.6,0,0,0-5.8-3.5,27,27,0,0,0-5.8-1.7,21.49,21.49,0,0,0-4.4-.6,16.18,16.18,0,0,1-1.8-.1V70.7a33.73,33.73,0,0,0,10.5-2.6,30.35,30.35,0,0,0,8.9-5.8,15.77,15.77,0,0,0,2.4-3.9,25.89,25.89,0,0,0,1.4-4.5,14.86,14.86,0,0,0,.2-4.7A13.51,13.51,0,0,0,456,44.7Z"/><path d="M64.52,78.3a14.12,14.12,0,0,1-4-3.3c-1.2-1.2-2.4-2.5-3.5-3.8a72.76,72.76,0,0,1-6.2-8.4c-4-6-7.5-12.3-11.1-18.5-1.8-3.2-3.7-6.3-5.5-9.5a15.37,15.37,0,0,0,1.9-1.7,4.81,4.81,0,0,0,2.4.7,4.5,4.5,0,1,0,0-9,4.39,4.39,0,0,0-2.7.9h-5.6A33.24,33.24,0,0,1,44.12,8.9a33.73,33.73,0,0,1,8.5-3.7c1-.3.6-2-.5-1.6a36.82,36.82,0,0,0-14.8,8.3,33.83,33.83,0,0,0-8.7,13.3c-.1.2-.1.4-.2.6h-3.6A35,35,0,0,0,10,6.8,38.41,38.41,0,0,0,1,2.7C0,2.4-.48,4,.62,4.4a33.8,33.8,0,0,1,22.1,20.4l.3.9H19a4.78,4.78,0,0,0-2.8-1,4.5,4.5,0,1,0,0,9,4.15,4.15,0,0,0,1.6-.3,12.47,12.47,0,0,0,9,3.9h.6a195.4,195.4,0,0,0,9.2,19A50.48,50.48,0,0,0,23,48.7a36.44,36.44,0,0,0-4.7-1.4c-.7-.2-1.4-.3-2.2-.5a7.15,7.15,0,0,0-2.5-.3A5,5,0,0,0,10,48.3a5.85,5.85,0,0,0-1.3,4,44,44,0,0,0,2.4,12.4c.4,1.2,2.4.7,1.9-.5a42.55,42.55,0,0,1-2.2-10c-.1-1.3-.5-2.9.3-4.1a3.11,3.11,0,0,1,2.6-1.5,14.88,14.88,0,0,1,4.2.8c1.4.4,2.9.8,4.3,1.3a45.16,45.16,0,0,1,8,3.8,43.56,43.56,0,0,1,8.1,6.2c.8.8,2-.2,1.7-1.1a.66.66,0,0,0-.1-.6,182.64,182.64,0,0,1-10.8-21.7,11.08,11.08,0,0,0,3.6-1.3c3.5,6.1,7.1,12.2,10.6,18.4A121.27,121.27,0,0,0,55,71.9a39.82,39.82,0,0,0,3.9,4.3c1.4,1.4,2.8,3,4.6,3.8C64.62,80.2,65.42,78.7,64.52,78.3Z"/><path d="M70.72,8.4l.7-.9a3.91,3.91,0,0,0,3,1.4c1.7,0,2.2-.9,2.2-1.7,0-2.5-5.7-1.1-5.7-4.5,0-1.6,1.4-2.7,3.3-2.7a4.76,4.76,0,0,1,3.4,1.3l-.6.9a3.55,3.55,0,0,0-2.8-1.1c-1.1,0-2,.6-2,1.5,0,2.1,5.7.9,5.7,4.5,0,1.4-.9,2.8-3.5,2.8A5.26,5.26,0,0,1,70.72,8.4Z"/><path d="M81.32,4.9A4.62,4.62,0,0,1,86,0a4.7,4.7,0,0,1,4.8,4.9A4.65,4.65,0,0,1,86,9.8C83.22,9.9,81.32,7.8,81.32,4.9Zm8.3,0c0-2.2-1.4-3.9-3.5-3.9s-3.5,1.6-3.5,3.9,1.4,3.9,3.5,3.9S89.62,7.2,89.62,4.9Z"/><path d="M94.72,9.7V.2H101V1.3h-5.1V4.4h5V5.5h-5V9.8h-1.2Z"/><path d="M106.92,9.7V1.2h-3V.2h7.2V1.3h-3V9.8h-1.2Z"/><path d="M122,9.7,119.92,2l-2.1,7.7h-1.3L113.82.2h1.3l2.1,8,2.2-8h1l2.2,8,2.1-8H126l-2.7,9.5Z"/><path d="M135.52,9.7l-.8-2.1h-4.8l-.8,2.1h-1.4l3.8-9.5H133l3.8,9.5Zm-3.2-8.3-2,5.2h4Z"/><path d="M145.72,9.7l-2.4-3.8h-1.9V9.7h-1.2V.2H144a2.81,2.81,0,0,1,3,2.9,2.68,2.68,0,0,1-2.5,2.8l2.6,3.9h-1.4Zm0-6.7a1.76,1.76,0,0,0-1.9-1.8h-2.5V4.8h2.5A1.71,1.71,0,0,0,145.72,3Z"/><path d="M150.92,9.7V.2h6.3V1.3H152V4.4h5V5.5h-5V8.8h5.1V9.9h-6.2Z"/><path d="M166.72,9.7V.2H170a4.65,4.65,0,0,1,4.9,4.8A4.65,4.65,0,0,1,170,9.8h-3.3Zm6.9-4.8a3.46,3.46,0,0,0-3.7-3.7h-2.1V8.6h2.1A3.46,3.46,0,0,0,173.62,4.9Z"/><path d="M178.72,9.7V.2H185V1.3h-5.1V4.4h5V5.5h-5V8.8H185V9.9h-6.3Z"/><path d="M191.82,9.7,188,.2h1.4l3.2,8.2,3.2-8.2h1.4l-3.8,9.5Z"/><path d="M200.32,9.7V.2h6.3V1.3h-5.1V4.4h5V5.5h-5V8.8h5.1V9.9h-6.3Z"/><path d="M210.32,9.7V.2h1.2V8.7h4.4V9.8h-5.6Z"/><path d="M218.72,4.9a4.62,4.62,0,0,1,4.7-4.9,4.7,4.7,0,0,1,4.8,4.9,4.65,4.65,0,0,1-4.8,4.9C220.62,9.9,218.72,7.8,218.72,4.9Zm8.2,0c0-2.2-1.4-3.9-3.5-3.9s-3.5,1.6-3.5,3.9,1.4,3.9,3.5,3.9S226.92,7.2,226.92,4.9Z"/><path d="M232,9.7V.2h3.8a2.81,2.81,0,0,1,3,2.9,2.81,2.81,0,0,1-3,2.9h-2.6V9.8H232Zm5.6-6.7a1.76,1.76,0,0,0-1.9-1.8h-2.5V4.8h2.5A1.71,1.71,0,0,0,237.62,3Z"/><path d="M250.62,9.7v-8l-3.2,8h-.5l-3.2-8v8h-1.2V.2h1.7l3,7.4,3-7.4h1.7V9.7Z"/><path d="M256,9.7V.2h6.3V1.3h-5.1V4.4h5V5.5h-5V8.8h5.1V9.9H256Z"/><path d="M272.92,9.7l-5.6-7.6V9.7h-1.2V.2h1.2l5.5,7.5V.2H274V9.7Z"/><path d="M280.62,9.7V1.2h-3V.2h7.2V1.3h-3V9.8h-1.2Z"/><path d="M300.32,9.7a4.71,4.71,0,0,1-1-1,3.78,3.78,0,0,1-2.7,1.2,2.71,2.71,0,0,1-3-2.7c0-1.5,1-2.2,2.1-2.8a4.74,4.74,0,0,1-.7-2.1,2.21,2.21,0,0,1,2.4-2.2,1.89,1.89,0,0,1,2.1,1.9c0,1.4-1.2,2.1-2.4,2.7.4.5.8,1,1.1,1.4s.8.9,1.1,1.3a8,8,0,0,0,1-2.2l.9.4a10,10,0,0,1-1.3,2.5c.6.6,1.2,1.2,1.9,1.8h-1.5ZM298.62,8c-.5-.6-1-1.1-1.3-1.4l-1.2-1.5a2.43,2.43,0,0,0-1.4,2.1,1.76,1.76,0,0,0,1.9,1.8A2.61,2.61,0,0,0,298.62,8Zm-2-4.1c1-.5,1.9-1,1.9-2a1,1,0,0,0-1.1-1.1,1.35,1.35,0,0,0-1.3,1.4A3,3,0,0,0,296.62,3.9Z"/><path d="M311.12,9.7V.2h6.3V1.3h-5.1V4.4h5V5.5h-5V8.8h5.1V9.9h-6.3Z"/><path d="M321.22,9.7V.2h3.3a4.65,4.65,0,0,1,4.9,4.8,4.65,4.65,0,0,1-4.9,4.8h-3.3Zm6.9-4.8a3.46,3.46,0,0,0-3.7-3.7h-2.1V8.6h2.1A3.46,3.46,0,0,0,328.12,4.9Z"/><path d="M333.22,6V.2h1.2V6a2.7,2.7,0,1,0,5.4,0V.2H341V6a3.53,3.53,0,0,1-3.9,3.9A3.62,3.62,0,0,1,333.22,6Z"/><path d="M344.92,4.9a4.78,4.78,0,0,1,4.9-4.9,4.09,4.09,0,0,1,3.6,1.9l-1,.6a3.12,3.12,0,0,0-2.6-1.4,3.68,3.68,0,0,0-3.7,3.9,3.68,3.68,0,0,0,3.7,3.9,3.12,3.12,0,0,0,2.6-1.4l1,.5a4.22,4.22,0,0,1-3.6,1.9A4.81,4.81,0,0,1,344.92,4.9Z"/><path d="M363.72,9.7l-.8-2.1h-4.8l-.8,2.1h-1.4l3.8-9.5h1.5L365,9.7Zm-3.2-8.3-2,5.2h4Z"/><path d="M369.72,9.7V1.2h-3V.2h7.2V1.3h-3V9.8h-1.2Z"/><path d="M377.62,9.7V.2h1.2V9.7Z"/><path d="M382.62,4.9a4.62,4.62,0,0,1,4.7-4.9,4.7,4.7,0,0,1,4.8,4.9,4.65,4.65,0,0,1-4.8,4.9C384.52,9.9,382.62,7.8,382.62,4.9Zm8.2,0c0-2.2-1.4-3.9-3.5-3.9s-3.5,1.6-3.5,3.9,1.4,3.9,3.5,3.9S390.82,7.2,390.82,4.9Z"/><path d="M402.72,9.7l-5.6-7.6V9.7h-1.2V.2h1.2l5.5,7.5V.2h1.2V9.7Z"/><path d="M348.92,104.6v-8h3.5a2,2,0,0,1,2.2,2,1.77,1.77,0,0,1-1.4,1.8,2.06,2.06,0,0,1,1.6,2,2,2,0,0,1-2.3,2.1h-3.6Zm4.8-5.8a1.29,1.29,0,0,0-1.4-1.3h-2.4v2.6h2.4A1.29,1.29,0,0,0,353.72,98.8Zm.1,3.5a1.39,1.39,0,0,0-1.5-1.4h-2.4v2.7h2.4C353.32,103.7,353.82,103.2,353.82,102.3Z"/><path d="M360.12,104.6v-3.4L357,96.6h1.2l2.5,3.7,2.5-3.7h1.2l-3.1,4.6v3.4Z"/><path d="M366,99.4a.7.7,0,1,1,1.4,0,.75.75,0,0,1-.7.7A.68.68,0,0,1,366,99.4Zm0,4.7a.7.7,0,1,1,.7.7A.84.84,0,0,1,366,104.1Z"/><path d="M374.42,104l.7-1.3a1.78,1.78,0,0,0,1.3.6c.8,0,1.2-.5,1.2-1.3V96.7h1.7V102a2.57,2.57,0,0,1-2.8,2.8A4.19,4.19,0,0,1,374.42,104Z"/><path d="M382.62,101.4V96.6h1.7v4.7a1.73,1.73,0,0,0,1.9,1.9,1.78,1.78,0,0,0,1.9-1.9V96.6h1.7v4.8c0,2-1.2,3.3-3.6,3.3S382.62,103.4,382.62,101.4Z"/><path d="M393,104.6v-8h1.7v6.5h3.4v1.5Z"/><path d="M400.92,104.6v-8h1.7v8Z"/><path d="M411.32,104.6l-.5-1.3h-3.4l-.5,1.3H405l3.1-8h2.1l3.1,8Zm-2.2-6.3-1.2,3.4h2.5Zm.1-2.4h-1.1l1.6-1.7h1.4Z"/><path d="M421.12,104.6l-3.8-5.2v5.2h-1.7v-8h1.7l3.7,5v-5h1.7v8Z"/><path d="M430.72,104.6v-8h3.1a4,4,0,1,1,0,8Zm5.7-4a2.36,2.36,0,0,0-2.5-2.5h-1.5v5h1.4A2.39,2.39,0,0,0,436.42,100.6Z"/><path d="M441,101.4V96.6h1.7v4.7a1.73,1.73,0,0,0,1.9,1.9,1.78,1.78,0,0,0,1.9-1.9V96.6h1.7v4.8c0,2-1.2,3.3-3.6,3.3S441,103.4,441,101.4Z"/><path d="M451,100.6a4,4,0,0,1,4.2-4.1,3.94,3.94,0,0,1,4.1,4.1,4.34,4.34,0,0,1-1,2.8l.6.7-1.2,1-.6-.7a3.81,3.81,0,0,1-1.9.4A4.16,4.16,0,0,1,451,100.6Zm5,2.5-.9-1,1.2-1,.9,1a2.41,2.41,0,0,0,.4-1.5,2.41,2.41,0,1,0-2.4,2.6A2,2,0,0,0,456,103.1Z"/><path d="M462.22,101.4V96.6h1.7v4.7a1.73,1.73,0,0,0,1.9,1.9,1.78,1.78,0,0,0,1.9-1.9V96.6h1.7v4.8c0,2-1.2,3.3-3.6,3.3S462.22,103.4,462.22,101.4Z"/><path d="M472.62,104.6v-8h5.6v1.5h-3.9v1.7h3.9v1.5h-3.9v1.8h3.9v1.5Z"/></g></g></svg>