<svg xmlns="http://www.w3.org/2000/svg" viewBox="0 0 22 21.42" ><g id="Capa_2" data-name="Capa 2"><g id="set_icons"><path id="icon-github" d="M11,0A11,11,0,0,0,7.37,21.38c.58.14.49-.27.49-.55v-1.9c-3.34.39-3.47-1.82-3.7-2.19-.45-.77-1.52-1-1.2-1.34.76-.39,1.54.1,2.43,1.43A2.33,2.33,0,0,0,8,17.47,3.12,3.12,0,0,1,8.8,16c-3.45-.62-4.89-2.73-4.89-5.23A4.86,4.86,0,0,1,5.09,7.5a4.32,4.32,0,0,1,.12-2.95,5,5,0,0,1,3,1.11A10.65,10.65,0,0,1,11,5.33a10.77,10.77,0,0,1,2.79.34,4.91,4.91,0,0,1,3-1.08,4.35,4.35,0,0,1,.13,2.9,4.82,4.82,0,0,1,1.2,3.25c0,2.52-1.45,4.63-4.91,5.24a3.07,3.07,0,0,1,.69,1,3,3,0,0,1,.24,1.21V21c0,.22,0,.44.37.44A11,11,0,0,0,11,0Z" style="fill:#f8f7f7"/></g></g></svg>