<svg width="38" height="39" viewBox="0 0 38 39" fill="none" xmlns="http://www.w3.org/2000/svg">
<circle cx="19" cy="19.019" r="19"/>
<path d="M10.4315 11.2588H27.5685C29.1852 11.2588 30 12.0219 30 13.5739V24.464C30 26.0031 29.1852 26.7791 27.5685 26.7791H10.4315C8.81481 26.7791 8 26.0031 8 24.464V13.5739C8 12.0219 8.81481 11.2588 10.4315 11.2588ZM18.9935 22.3817L27.7108 15.2294C28.0212 14.9707 28.2669 14.3758 27.8789 13.8455C27.5038 13.3152 26.8183 13.3023 26.3657 13.6256L18.9935 18.618L11.6343 13.6256C11.1817 13.3023 10.4962 13.3152 10.1211 13.8455C9.7331 14.3758 9.97884 14.9707 10.2892 15.2294L18.9935 22.3817Z" fill="#F7F7F7"/>
</svg>
