<svg xmlns="http://www.w3.org/2000/svg" viewBox="0 0 20 20" ><g id="Capa_2" data-name="Capa 2"><g id="set_icons"><path id="icon-linkedin" d="M17,17h-3V12.4c0-1.1,0-2.53-1.55-2.53s-1.78,1.2-1.78,2.45V17h-3V7.5h2.85V8.8h0a3.1,3.1,0,0,1,2.8-1.54c3,0,3.56,2,3.56,4.54V17ZM4.45,6.19a1.5,1.5,0,0,1-.66-.13,1.68,1.68,0,0,1-.93-.93,1.65,1.65,0,0,1-.13-.66A1.69,1.69,0,0,1,3,3.52a1.69,1.69,0,0,1,1.77-.73,1.69,1.69,0,0,1,.88.47A1.71,1.71,0,0,1,6,5.13,1.7,1.7,0,0,1,4.45,6.19ZM5.93,17H3V7.5h3ZM18.52,0h-17A1.45,1.45,0,0,0,0,1.44V18.56A1.45,1.45,0,0,0,1.47,20H18.52A1.46,1.46,0,0,0,20,18.56V1.44A1.46,1.46,0,0,0,18.52,0Z" style="fill:#f8f7f7"/></g></g></svg>