<svg width="38" height="39" viewBox="0 0 38 39" fill="none" xmlns="http://www.w3.org/2000/svg">
<circle cx="19" cy="19.019" r="19"/>
<path d="M26.0375 26.0631H23.0794V21.4212C23.0794 20.3143 23.0562 18.8918 21.5325 18.8918C19.99 18.8918 19.755 20.0924 19.755 21.3393V26.0624H16.7931V16.5181H19.6381V17.8199H19.6763C20.0738 17.0681 21.0406 16.2774 22.4831 16.2774C25.4837 16.2774 26.0406 18.2531 26.0406 20.8218V26.0624L26.0375 26.0631ZM13.4469 15.2137C13.2208 15.2138 12.9969 15.1692 12.7881 15.0827C12.5792 14.9961 12.3895 14.8692 12.2298 14.7092C12.0701 14.5492 11.9435 14.3592 11.8573 14.1502C11.7711 13.9412 11.727 13.7173 11.7275 13.4912C11.7279 13.1509 11.8291 12.8184 12.0185 12.5356C12.2078 12.2529 12.4767 12.0327 12.7913 11.9027C13.1058 11.7728 13.4517 11.7391 13.7854 11.8058C14.1191 11.8725 14.4255 12.0367 14.6659 12.2775C14.9063 12.5183 15.0699 12.825 15.136 13.1588C15.2021 13.4926 15.1677 13.8385 15.0372 14.1528C14.9068 14.4671 14.686 14.7356 14.4029 14.9244C14.1199 15.1133 13.7872 15.2139 13.4469 15.2137ZM14.9306 26.0631H11.9625V16.5187H14.9306V26.0631ZM27.5225 9.01868H10.475C9.66062 9.01868 9 9.66305 9 10.4606V27.5774C9 28.3749 9.66062 29.0193 10.475 29.0193H27.5194C28.3325 29.0193 29 28.3749 29 27.5774V10.4606C29 9.66305 28.3325 9.01868 27.5194 9.01868H27.5225Z" fill="#F7F7F7"/>
</svg>
