<svg xmlns="http://www.w3.org/2000/svg" viewBox="0 0 24 24" ><g id="Capa_2" data-name="Capa 2"><g id="set_icons"><path id="icon-read" d="M23.14,0H17a6.84,6.84,0,0,0-3.7,1.09L12,1.93l-1.31-.84A6.84,6.84,0,0,0,7,0H.86A.85.85,0,0,0,0,.86V16.07a.85.85,0,0,0,.86.86H7A6.84,6.84,0,0,1,10.69,18l1.19.76a.19.19,0,0,0,.12,0,.15.15,0,0,0,.11,0L13.3,18A6.9,6.9,0,0,1,17,16.93h6.13a.85.85,0,0,0,.86-.86V.86A.85.85,0,0,0,23.14,0ZM7,15H1.93V1.93H7a4.92,4.92,0,0,1,2.66.78L11,3.55l.18.12V16A8.81,8.81,0,0,0,7,15Zm15.08,0H17a8.81,8.81,0,0,0-4.15,1V3.67L13,3.55l1.31-.84A4.92,4.92,0,0,1,17,1.93h5.06ZM8.92,5.36h-5a.2.2,0,0,0-.19.2v1.2a.2.2,0,0,0,.19.2h5a.19.19,0,0,0,.19-.2V5.56A.18.18,0,0,0,8.92,5.36Zm6,.2v1.2a.2.2,0,0,0,.19.2h5a.2.2,0,0,0,.19-.2V5.56a.2.2,0,0,0-.19-.2h-5A.2.2,0,0,0,14.89,5.56Zm-6,3.55h-5a.2.2,0,0,0-.19.2v1.2a.2.2,0,0,0,.19.2h5a.19.19,0,0,0,.19-.2V9.31A.18.18,0,0,0,8.92,9.11Zm11.14,0h-5a.2.2,0,0,0-.19.2v1.2a.2.2,0,0,0,.19.2h5a.2.2,0,0,0,.19-.2V9.31A.2.2,0,0,0,20.06,9.11Z"/></g></g></svg>