<svg width="38" height="39" viewBox="0 0 38 39" fill="none" xmlns="http://www.w3.org/2000/svg">
<circle cx="19" cy="19.0192" r="19" id="circle"/>
<path d="M19.0012 8.31043C12.923 8.30797 8 13.2285 8 19.3018C8 24.1044 11.0797 28.1869 15.3686 29.6861C15.9462 29.8311 15.8577 29.4207 15.8577 29.1405V27.2357C12.5224 27.6265 12.3872 25.4194 12.1636 25.0507C11.7113 24.2789 10.6422 24.0823 10.9617 23.7136C11.7211 23.3228 12.4954 23.8119 13.3925 25.1367C14.0413 26.0977 15.3071 25.9355 15.9486 25.7757C16.0887 25.1981 16.3886 24.682 16.8015 24.2814C13.3458 23.662 11.9055 21.5532 11.9055 19.0462C11.9055 17.8296 12.3061 16.7113 13.0926 15.8093C12.5912 14.3223 13.1393 13.0491 13.213 12.8599C14.641 12.7321 16.1256 13.8823 16.2411 13.9733C17.0522 13.7545 17.9788 13.639 19.016 13.639C20.0581 13.639 20.9872 13.7594 21.8056 13.9806C22.0833 13.7693 23.4597 12.7812 24.787 12.9016C24.8582 13.0909 25.394 14.3346 24.9221 15.8019C25.7185 16.7064 26.124 17.8345 26.124 19.0536C26.124 21.5655 24.6739 23.6768 21.2084 24.2863C21.5052 24.5782 21.7409 24.9263 21.9017 25.3104C22.0624 25.6944 22.1451 26.1066 22.1448 26.5229V29.288C22.1645 29.5092 22.1448 29.7279 22.5135 29.7279C26.8663 28.2606 30 24.1487 30 19.3043C30 13.2285 25.0745 8.31043 19.0012 8.31043Z" fill="#F7F7F7"/>
</svg>
